<svg xmlns="http://www.w3.org/2000/svg" viewBox="0 0 200 200" fill="none">
  <!-- String -->
  <path d="M15 40 Q55 60 100 45 Q145 30 185 50" stroke="#2D2D2D" stroke-width="2" fill="none" opacity="0.3"/>

  <!-- Star 1 -->
  <g transform="translate(30, 55)">
    <line x1="15" y1="55" x2="15" y2="62" stroke="#2D2D2D" stroke-width="1.5" opacity="0.3"/>
    <path d="M15 0 L18 10 L28 10 L20 16 L23 27 L15 21 L7 27 L10 16 L2 10 L12 10Z" fill="#FFB84D"/>
    <path d="M15 4 L17 10 L23 10 L18 14 L20 22 L15 18 L10 22 L12 14 L7 10 L13 10Z" fill="#FFCC70" opacity="0.5"/>
  </g>

  <!-- Heart -->
  <g transform="translate(62, 50)">
    <line x1="15" y1="0" x2="15" y2="8" stroke="#2D2D2D" stroke-width="1.5" opacity="0.3"/>
    <path d="M15 12 Q15 6 21 6 Q27 6 27 12 Q27 6 33 6 Q39 6 39 12 Q39 22 27 30 Q15 22 15 12Z" transform="translate(-12, 5)" fill="#FF6B6B"/>
    <path d="M15 15 Q15 10 20 10 Q24 10 24 15 Q24 10 28 10 Q32 10 32 15 Q32 22 24 28 Q15 22 15 15Z" transform="translate(-10, 5)" fill="#FF8E8E" opacity="0.4"/>
  </g>

  <!-- Circle -->
  <g transform="translate(100, 38)">
    <line x1="0" y1="0" x2="0" y2="10" stroke="#2D2D2D" stroke-width="1.5" opacity="0.3"/>
    <circle cx="0" cy="25" r="14" fill="#4ECDC4"/>
    <circle cx="0" cy="25" r="9" fill="#6DD8D0" opacity="0.5"/>
    <!-- Crochet texture -->
    <circle cx="0" cy="25" r="11" stroke="#3DBDB5" stroke-width="1.5" fill="none" opacity="0.4"/>
  </g>

  <!-- Star 2 -->
  <g transform="translate(130, 32)">
    <line x1="15" y1="0" x2="15" y2="12" stroke="#2D2D2D" stroke-width="1.5" opacity="0.3"/>
    <path d="M15 12 L18 22 L28 22 L20 28 L23 39 L15 33 L7 39 L10 28 L2 22 L12 22Z" fill="#7C5CFC"/>
    <path d="M15 16 L17 22 L23 22 L18 26 L20 34 L15 30 L10 34 L12 26 L7 22 L13 22Z" fill="#9d85fd" opacity="0.5"/>
  </g>

  <!-- Diamond -->
  <g transform="translate(160, 42)">
    <line x1="15" y1="0" x2="15" y2="8" stroke="#2D2D2D" stroke-width="1.5" opacity="0.3"/>
    <path d="M15 8 L28 25 L15 42 L2 25Z" fill="#FF6B6B"/>
    <path d="M15 13 L24 25 L15 37 L6 25Z" fill="#FF8E8E" opacity="0.4"/>
  </g>

  <!-- Second row string -->
  <path d="M15 100 Q55 120 100 105 Q145 90 185 110" stroke="#2D2D2D" stroke-width="2" fill="none" opacity="0.3"/>

  <!-- Moon -->
  <g transform="translate(40, 110)">
    <line x1="12" y1="0" x2="12" y2="8" stroke="#2D2D2D" stroke-width="1.5" opacity="0.3"/>
    <path d="M20 10 A14 14 0 1 0 20 38 A10 10 0 1 1 20 10" fill="#FFB84D"/>
  </g>

  <!-- Cloud -->
  <g transform="translate(80, 100)">
    <line x1="18" y1="0" x2="18" y2="10" stroke="#2D2D2D" stroke-width="1.5" opacity="0.3"/>
    <ellipse cx="18" cy="28" rx="16" ry="10" fill="#9d85fd"/>
    <ellipse cx="10" cy="30" rx="10" ry="8" fill="#9d85fd"/>
    <ellipse cx="26" cy="30" rx="10" ry="8" fill="#9d85fd"/>
    <ellipse cx="18" cy="24" rx="10" ry="8" fill="#B0A0FD" opacity="0.5"/>
  </g>

  <!-- Heart 2 -->
  <g transform="translate(125, 88)">
    <line x1="12" y1="0" x2="12" y2="10" stroke="#2D2D2D" stroke-width="1.5" opacity="0.3"/>
    <path d="M12 14 Q12 8 18 8 Q24 8 24 14 Q24 8 30 8 Q36 8 36 14 Q36 24 24 32 Q12 24 12 14Z" transform="translate(-12, 5)" fill="#4ECDC4"/>
  </g>

  <!-- Star 3 -->
  <g transform="translate(155, 102)">
    <line x1="12" y1="0" x2="12" y2="8" stroke="#2D2D2D" stroke-width="1.5" opacity="0.3"/>
    <path d="M12 8 L15 18 L25 18 L17 24 L20 35 L12 29 L4 35 L7 24 L-1 18 L9 18Z" fill="#FFB84D"/>
  </g>

  <!-- Sparkle dots -->
  <circle cx="25" cy="160" r="2" fill="#FFB84D" opacity="0.4"/>
  <circle cx="175" cy="155" r="2" fill="#FF6B6B" opacity="0.4"/>
  <circle cx="100" cy="165" r="2.5" fill="#7C5CFC" opacity="0.4"/>
</svg>
